<svg width="268" height="268" viewBox="0 0 268 268" fill="none" xmlns="http://www.w3.org/2000/svg">
<circle cx="134" cy="134" r="125" fill="#F2EAD8"/>
<circle cx="134" cy="134" r="129.5" stroke="#3F0070" stroke-opacity="0.15" stroke-width="9"/>
<path d="M114.125 68.875C117.042 68.875 119.417 69.7083 121.25 71.375C123.167 72.9583 124 75.875 123.75 80.125C123.667 81.5417 123.333 84.2083 122.75 88.125C122.167 91.9583 121.458 96.5 120.625 101.75C119.792 107 118.833 112.667 117.75 118.75C116.75 124.75 115.792 130.625 114.875 136.375H117.5C118.333 136.375 119.25 136.333 120.25 136.25C121.25 136.167 122.292 136.042 123.375 135.875C122.958 136.875 122.5 137.833 122 138.75C121.5 139.583 121 140.333 120.5 141C119.917 141.75 119.333 142.417 118.75 143C118 143.917 117.125 144.75 116.125 145.5C115.125 146.167 114.167 146.708 113.25 147.125C112.667 151.208 112.167 154.875 111.75 158.125C111.417 161.292 111.208 163.917 111.125 166C110.958 169.167 111.042 172.125 111.375 174.875C111.625 177.292 112.125 179.75 112.875 182.25C113.625 184.75 114.833 186.75 116.5 188.25L102 193C101 191.583 100.25 189.667 99.75 187.25C99.3333 184.917 99.0417 182.583 98.875 180.25C98.625 177.5 98.5833 174.667 98.75 171.75C98.9167 168.833 99.375 165.042 100.125 160.375C100.875 155.625 101.708 150.458 102.625 144.875C100.958 144.375 99.125 143.958 97.125 143.625C95.2083 143.292 93.0417 143.125 90.625 143.125C88.4583 143.125 86.1667 143.208 83.75 143.375C81.4167 143.542 79.0833 143.75 76.75 144C75.75 147.667 74.75 151.542 73.75 155.625C72.6667 160.042 71.6667 163.792 70.75 166.875C69.9167 170.042 69.0833 172.667 68.25 174.75C67.5 176.833 66.7083 178.5 65.875 179.75C65.125 181 64.2917 181.917 63.375 182.5C62.375 183 61.125 183.458 59.625 183.875C58.2083 184.292 56.4167 184.708 54.25 185.125C52.0833 185.542 49.2917 185.875 45.875 186.125C47.125 184.625 48.2083 183.25 49.125 182C50.0417 180.75 50.9583 179.208 51.875 177.375C52.7917 175.542 53.8333 173.167 55 170.25C56.0833 167.417 57.5 163.667 59.25 159C60 157.083 60.75 155 61.5 152.75C62.3333 150.417 63.2083 148.042 64.125 145.625C61.125 146.042 58.5833 146.417 56.5 146.75C54.4167 147.083 53.1667 147.333 52.75 147.5C52.0833 147.583 51.5417 147.583 51.125 147.5C50.0417 147.333 49.4583 146.792 49.375 145.875C49.4583 144.708 49.875 143.917 50.625 143.5C51.2917 143.083 52.3333 142.583 53.75 142C54.4167 141.667 55.9583 141.083 58.375 140.25C60.7083 139.333 63.5833 138.375 67 137.375C68.25 133.875 69.4583 130.417 70.625 127C71.875 123.5 73.0833 120.167 74.25 117C75.4167 113.833 76.5417 110.875 77.625 108.125C78.7083 105.292 79.7083 102.875 80.625 100.875C82.0417 97.7917 83.8333 94.4167 86 90.75C88.25 87 90.7917 83.5 93.625 80.25C96.5417 77 99.7083 74.2917 103.125 72.125C106.625 69.9583 110.292 68.875 114.125 68.875ZM112.75 94.875C113.667 91.125 114.292 88.0417 114.625 85.625C114.958 83.2083 115.083 81.3333 115 80C114.917 78.5833 114.625 77.625 114.125 77.125C113.708 76.5417 113.167 76.25 112.5 76.25C111.417 76.25 110.083 76.6667 108.5 77.5C106.917 78.3333 105.25 79.5417 103.5 81.125C101.75 82.625 100 84.5417 98.25 86.875C96.5833 89.125 95.0833 91.7083 93.75 94.625C91.8333 98.9583 89.6667 104.292 87.25 110.625C84.8333 116.875 82.2083 124.875 79.375 134.625C81.0417 134.375 82.6667 134.167 84.25 134C85.9167 133.833 87.5417 133.75 89.125 133.75C91.9583 133.75 94.6667 133.875 97.25 134.125C99.8333 134.292 102.208 134.5 104.375 134.75C105.125 130.75 105.875 126.833 106.625 123C107.458 119.083 108.25 115.375 109 111.875C109.75 108.375 110.417 105.167 111 102.25C111.667 99.3333 112.25 96.875 112.75 94.875ZM156.875 187.375C152.792 187.375 149.125 186.292 145.875 184.125C142.625 182.042 139.875 179.167 137.625 175.5C135.375 171.833 133.708 167.583 132.625 162.75C131.625 157.917 131.25 152.792 131.5 147.375C131.833 141.625 132.708 135.708 134.125 129.625C135.542 123.458 137.458 117.458 139.875 111.625C142.292 105.792 145.083 100.25 148.25 95C151.5 89.75 155.042 85.1667 158.875 81.25C162.792 77.3333 166.958 74.25 171.375 72C175.792 69.6667 180.417 68.5 185.25 68.5C188.417 68.5 191.083 69.2917 193.25 70.875C195.417 72.4583 197.083 74.5417 198.25 77.125C199.5 79.625 200.292 82.4583 200.625 85.625C200.958 88.7917 200.917 91.9583 200.5 95.125C200.167 98.2083 199.458 101.208 198.375 104.125C197.375 106.958 196.125 109.292 194.625 111.125C192.708 113.542 190.958 114.833 189.375 115C187.875 115.083 186.417 114.625 185 113.625C184.417 113.125 183.833 112.542 183.25 111.875C182.667 111.292 182.042 110.583 181.375 109.75C180.708 108.833 180 107.708 179.25 106.375C180.833 105.792 182.292 104.833 183.625 103.5C184.958 102.083 186.083 100.5 187 98.75C188 97 188.75 95.1667 189.25 93.25C189.833 91.25 190.167 89.2917 190.25 87.375C190.333 85.875 190.292 84.4167 190.125 83C189.958 81.5 189.625 80.2083 189.125 79.125C188.625 77.9583 187.917 77.0417 187 76.375C186.167 75.625 185.083 75.25 183.75 75.25C180.417 75.25 177.167 76.5417 174 79.125C170.833 81.625 167.833 85 165 89.25C162.25 93.4167 159.667 98.2083 157.25 103.625C154.917 109.042 152.875 114.625 151.125 120.375C149.375 126.125 147.958 131.792 146.875 137.375C145.792 142.958 145.125 148.042 144.875 152.625C144.542 158.375 144.75 163.042 145.5 166.625C146.25 170.208 147.25 173 148.5 175C149.833 177.083 151.25 178.458 152.75 179.125C154.25 179.875 155.625 180.25 156.875 180.25C159.208 180.25 161.833 179.167 164.75 177C167.667 174.833 170.458 171.875 173.125 168.125C175.792 164.458 178.167 160.208 180.25 155.375C182.417 150.542 183.958 145.458 184.875 140.125C182.792 140.125 180.667 140.167 178.5 140.25C176.417 140.25 174.417 140.292 172.5 140.375C170.583 140.458 168.875 140.583 167.375 140.75C165.875 140.833 164.708 140.958 163.875 141.125C163.292 140.875 162.875 140.583 162.625 140.25C162.458 139.917 162.292 139.542 162.125 139.125C161.958 138.792 161.875 138.375 161.875 137.875C161.875 137.375 161.958 136.917 162.125 136.5C162.292 136.083 162.5 135.667 162.75 135.25C163 134.75 163.333 134.25 163.75 133.75C166.417 133.25 169.042 132.833 171.625 132.5C174.208 132.167 176.875 131.917 179.625 131.75C182.458 131.5 185.458 131.333 188.625 131.25C191.875 131.083 195.5 130.958 199.5 130.875C201.167 130.792 202.167 131 202.5 131.5C202.917 132 202.792 133.25 202.125 135.25C201.625 136.833 200.958 138.125 200.125 139.125C199.375 140.125 198.083 140.542 196.25 140.375C195.667 140.375 195.208 140.333 194.875 140.25C194.125 145.167 192.542 150.375 190.125 155.875C187.708 161.375 184.75 166.458 181.25 171.125C177.75 175.792 173.875 179.667 169.625 182.75C165.458 185.833 161.208 187.375 156.875 187.375Z" fill="#3F0070"/>
</svg>
